<svg xmlns="http://www.w3.org/2000/svg" xmlns:xlink="http://www.w3.org/1999/xlink" id="_Layer_" data-name="&lt;Layer&gt;" viewBox="0 0 3006 1043.75"><defs><style>.cls-1{fill:#1f1486}.cls-2{fill:#7b54e2}.cls-3{fill:#b098ee}.cls-4{fill:#5d3faa}.cls-5{fill:url(#linear-gradient)}.cls-6{fill:#f8e74a}.cls-7{fill:#1179c5}.cls-8{fill:#4c505e}.cls-9{fill:#303030}.cls-10{fill:#001f26}.cls-11{fill:#0089a9}.cls-12{fill:#75e0f9}.cls-13{fill:#004555}.cls-14{fill:#31003d}.cls-15{fill:#3c4875}.cls-16{fill:#5db9f4}.cls-17{fill:#dd7c82}.cls-18{fill:#903b41}.cls-19{fill:#a65e62}.cls-20{fill:#360442}.cls-21{fill:#1e1e1e}.cls-22{fill:#fd5e5a}.cls-23{fill:#b54300}.cls-24{fill:#d80000}.cls-25{fill:#3a0049}.cls-26{fill:#6d175b}.cls-27{fill:#fc7575}.cls-28{fill:#4f005e}.cls-29{fill:#7f71a4}.cls-30{fill:#f15900}.cls-31{fill:#2e0a29}.cls-32{fill:#450f3d}.cls-33{fill:#340b2e}.cls-34{fill:#464a7f}.cls-35{fill:#3b4999}.cls-36{fill:#363a68}.cls-37{fill:#5c1451}.cls-38{fill:#fff}.cls-39{fill:#603e6b}.cls-40{fill:#a338c6}.cls-41{fill:#3a0051}.cls-42{fill:#5492ba}.cls-43{fill:#2a495d}.cls-44{fill:#1a1722}.cls-45{fill:#904}.cls-46{fill:#2b001b}.cls-47{fill:#781051}.cls-48{fill:#332f44}.cls-49{fill:#8dcff9}.cls-50{fill:#000086}.cls-51{fill:#000065}.cls-52{fill:#42004a}.cls-53{fill:#0000bf}.cls-54{fill:#00f}.cls-55{fill:#70c3f8}.cls-56{fill:#c6e7fc}.cls-57{fill:url(#linear-gradient-2)}.cls-58{fill:#1c0f00}.cls-59{fill:#00c9f7}.cls-60{fill:#f47a33}</style><linearGradient id="linear-gradient" x1="1395.61" x2="1372.46" y1="1320.49" y2="1140.44" gradientUnits="userSpaceOnUse"><stop offset="0" stop-color="#f20000"/><stop offset="1" stop-color="#ffa630"/></linearGradient><linearGradient id="linear-gradient-2" x1="2072.65" x2="2231.76" y1="1498.39" y2="1498.39" xlink:href="#linear-gradient"/></defs><path d="M3006,1670V1045.55c-20.64-1.79-76.38-4.74-154.57,5.64-91.76,12.19-234.21,45.75-391.77,136.47-33.44,19.25-63.94,37.35-93.43,54.86-236.15,140.15-343.93,204.12-642.45,68.49-170-77.25-295.46-110.71-419.46-111.88-126.13-1.13-250.73,31.41-410.93,84.39-163.53,54.08-279.21,3.81-413.17-54.41C353.53,1174.05,210.11,1111.82,0,1134.71V1670Z" class="cls-1" transform="translate(0 -626.25)"/><path d="M1277.12,1008.61c-4.34,4.54-12.23,7.42-21.16,7.09s-16.58-3.76-20.59-8.6c4.34-4.54,12.23-7.42,21.16-7.1S1273.11,1003.77,1277.12,1008.61Z" class="cls-2" transform="translate(0 -626.25)"/><path d="M1373.3,1194.51a759.79,759.79,0,0,1-8-122.64c.17-20.49,1.29-40.95,2.92-61.34s4-40.73,6.89-61a1125.2,1125.2,0,0,1,24.17-120.19q7.65-29.68,16.92-58.91c6.19-19.47,12.8-38.78,20.44-57.79l2.41,1c-7.34,18.94-13.72,38.33-19.65,57.8s-11.28,39.14-16.12,58.92a1121.84,1121.84,0,0,0-22.57,119.94c-2.57,20.19-4.8,40.41-6.09,60.7s-2.23,40.59-2.13,60.91a750.48,750.48,0,0,0,9.41,121.22Z" class="cls-2" transform="translate(0 -626.25)"/><path d="M1448.58,631.24c-11.58,7-20.8,21.76-23.36,39.83s2.18,34.84,11.36,44.76c11.57-7,20.8-21.76,23.36-39.83S1457.75,641.16,1448.58,631.24Z" class="cls-2" transform="translate(0 -626.25)"/><path d="M1380.4,693.54c-1.42,10.46,3.07,23.31,12.82,33.72s22.28,15.72,32.81,15c1.42-10.45-3.07-23.3-12.82-33.72S1390.93,692.81,1380.4,693.54Z" class="cls-2" transform="translate(0 -626.25)"/><path d="M1428,741.72c8.87,5.74,22.4,7.14,36,2.75s23.71-13.47,27.53-23.31c-8.86-5.73-22.4-7.14-36-2.75S1431.78,731.88,1428,741.72Z" class="cls-2" transform="translate(0 -626.25)"/><path d="M1414.74,786.56c8.86,5.74,22.4,7.15,36,2.76s23.71-13.47,27.53-23.32c-8.86-5.73-22.4-7.14-36-2.74S1418.56,776.73,1414.74,786.56Z" class="cls-2" transform="translate(0 -626.25)"/><path d="M1400.88,832.52c8.86,5.74,22.4,7.14,36,2.75s23.71-13.47,27.53-23.31c-8.86-5.73-22.4-7.14-36-2.75S1404.7,822.68,1400.88,832.52Z" class="cls-2" transform="translate(0 -626.25)"/><path d="M1391.59,875.31c8.86,5.74,22.39,7.15,36,2.75s23.71-13.47,27.53-23.31c-8.86-5.73-22.41-7.14-36-2.75S1395.41,865.47,1391.59,875.31Z" class="cls-2" transform="translate(0 -626.25)"/><path d="M1395.45,866.65c-8.86,5.73-22.39,7.14-36,2.75s-23.71-13.47-27.53-23.31c8.86-5.73,22.4-7.14,36-2.75S1391.63,856.81,1395.45,866.65Z" class="cls-2" transform="translate(0 -626.25)"/><path d="M1368,734.26c-1.42,10.46,3.07,23.3,12.82,33.71s22.28,15.72,32.81,15c1.42-10.46-3.07-23.31-12.82-33.72S1378.49,733.52,1368,734.26Z" class="cls-2" transform="translate(0 -626.25)"/><path d="M1353.7,780.51c-1.41,10.46,3.07,23.31,12.83,33.72s22.28,15.72,32.81,15c1.41-10.46-3.07-23.31-12.82-33.72S1364.24,779.78,1353.7,780.51Z" class="cls-2" transform="translate(0 -626.25)"/><path d="M1634.58,819.85c-17.74,9.78-34.38,21.32-50.52,33.49a568.74,568.74,0,0,0-46.22,39.27,572.29,572.29,0,0,0-79.07,91.94,567,567,0,0,0-58,106.77,591.26,591.26,0,0,0-33.53,117l8.59,1.43a582.78,582.78,0,0,1,31.29-115.87,561,561,0,0,1,55.7-106.51,567.93,567.93,0,0,1,77.11-92.5,562.59,562.59,0,0,1,45.4-39.79c15.87-12.37,32.31-24.15,49.77-34.13Z" class="cls-2" transform="translate(0 -626.25)"/><path d="M1700.06,774.14c-1,13.48-9.92,28.42-24.85,38.93s-32,13.9-45,10.24c1-13.48,9.91-28.42,24.85-38.92S1687.05,770.48,1700.06,774.14Z" class="cls-2" transform="translate(0 -626.25)"/><path d="M1599.51,762.72c10,9.12,16.1,25.43,15,43.65s-9,33.73-19.94,41.65c-10-9.12-16.11-25.43-15.06-43.66S1588.56,770.64,1599.51,762.72Z" class="cls-2" transform="translate(0 -626.25)"/><path d="M1540.15,792.51c12,6.14,22.3,20.23,26.14,38.08s.3,34.9-8.14,45.45c-12-6.14-22.29-20.22-26.14-38.07S1531.71,803.06,1540.15,792.51Z" class="cls-2" transform="translate(0 -626.25)"/><path d="M1500.12,829.35c12,6.14,22.29,20.22,26.13,38.07s.3,34.91-8.14,45.45c-12-6.13-22.29-20.22-26.14-38.06S1491.67,839.9,1500.12,829.35Z" class="cls-2" transform="translate(0 -626.25)"/><path d="M1454,867.21c13.21,2.85,26.72,13.85,35,30.12s9.22,33.67,3.75,46c-13.2-2.85-26.72-13.85-35-30.11S1448.56,879.57,1454,867.21Z" class="cls-2" transform="translate(0 -626.25)"/><path d="M1421.56,914.61c12.06-.51,26.22,5.95,37,18.15s15.56,27,13.62,38.93c-12.06.51-26.22-6-37-18.15S1419.62,926.52,1421.56,914.61Z" class="cls-2" transform="translate(0 -626.25)"/><path d="M1398,944.41c12-.51,26.21,6,37,18.15s15.55,27,13.61,38.93c-12.06.51-26.21-6-37-18.14S1396.07,956.33,1398,944.41Z" class="cls-2" transform="translate(0 -626.25)"/><path d="M1384.56,988.37c10.33-.44,22.47,5.1,31.75,15.55s13.33,23.16,11.66,33.37c-10.33.44-22.46-5.1-31.74-15.55S1382.9,998.58,1384.56,988.37Z" class="cls-2" transform="translate(0 -626.25)"/><path d="M1371.51,1034.21c7.52-4.25,18.7-4.76,29.66-.53s18.9,12.11,21.62,20.31c-7.52,4.24-18.7,4.75-29.65.52S1374.23,1042.41,1371.51,1034.21Z" class="cls-2" transform="translate(0 -626.25)"/><path d="M1366.24,1072c4.62-5.15,13-8.39,22.38-8s17.46,4.35,21.62,9.88c-4.63,5.15-13,8.39-22.39,8S1370.4,1077.52,1366.24,1072Z" class="cls-2" transform="translate(0 -626.25)"/><path d="M1675.24,874.52c-11.49,7.11-28.85,8.57-46.1,2.6s-30-17.84-34.65-30.53c11.49-7.11,28.85-8.57,46.11-2.61S1670.6,861.83,1675.24,874.52Z" class="cls-2" transform="translate(0 -626.25)"/><path d="M1638.79,904.51c-11.48,7.11-28.84,8.57-46.1,2.61s-30-17.84-34.64-30.54c11.49-7.11,28.85-8.57,46.1-2.6S1634.16,891.82,1638.79,904.51Z" class="cls-2" transform="translate(0 -626.25)"/><path d="M1600,941.49c-11.5,7.11-28.85,8.57-46.11,2.61s-30-17.85-34.64-30.54c11.49-7.12,28.85-8.57,46.11-2.6S1595.31,928.8,1600,941.49Z" class="cls-2" transform="translate(0 -626.25)"/><path d="M1556.1,966.09c-9.35,5.79-23.46,7-37.5,2.12s-24.4-14.51-28.17-24.83c9.34-5.79,23.46-7,37.5-2.12S1552.33,955.77,1556.1,966.09Z" class="cls-2" transform="translate(0 -626.25)"/><path d="M1523.26,989.59c-7.64,4.93-19.11,6.07-30.44,2.15s-19.65-11.9-22.61-20.5c7.64-4.94,19.11-6.08,30.44-2.15S1520.31,981,1523.26,989.59Z" class="cls-2" transform="translate(0 -626.25)"/><path d="M1503.65,1019.8c-7.65,4.93-19.11,6.07-30.45,2.15s-19.65-11.9-22.61-20.5c7.65-4.94,19.11-6.08,30.45-2.15S1500.69,1011.19,1503.65,1019.8Z" class="cls-2" transform="translate(0 -626.25)"/><path d="M1482.14,1047.14c-6.19,5.27-16.56,7.82-27.69,6s-20.16-7.49-24.38-14.45c6.19-5.27,16.57-7.81,27.7-6S1477.93,1040.19,1482.14,1047.14Z" class="cls-2" transform="translate(0 -626.25)"/><path d="M1461.36,1081.58c-7,2-16.24.19-24.44-5.41s-13.25-13.59-13.93-20.8c7-2,16.24-.19,24.44,5.41S1460.67,1074.35,1461.36,1081.58Z" class="cls-2" transform="translate(0 -626.25)"/><path d="M1438.22,1102.13c-5.52.5-12.24-2.16-17.6-7.53s-8-12.09-7.52-17.62c5.52-.5,12.24,2.17,17.6,7.54S1438.72,1096.61,1438.22,1102.13Z" class="cls-2" transform="translate(0 -626.25)"/><path d="M1422.87,1107.52a13.43,13.43,0,0,1-11.18-4.19c-3.29-3.29-4.74-7.56-4.18-11.19,3.63-.56,7.9.9,11.18,4.19S1423.43,1103.89,1422.87,1107.52Z" class="cls-2" transform="translate(0 -626.25)"/><path d="M1417.92,1117.68c-3.63.56-7.9-.9-11.19-4.19s-4.73-7.56-4.17-11.19c3.63-.55,7.9.91,11.18,4.19S1418.48,1114.05,1417.92,1117.68Z" class="cls-2" transform="translate(0 -626.25)"/><path d="M1239.94,785.77c12.66,13.88,23.83,29,34.38,44.48a527.45,527.45,0,0,1,28.89,48.27,531.46,531.46,0,0,1,42,104.33,525.42,525.42,0,0,1,19.07,111.06,547.54,547.54,0,0,1-5.42,112.74l-8-1.3a541,541,0,0,0,7.06-111.11,520.33,520.33,0,0,0-17.17-110.16,527.83,527.83,0,0,0-40.15-104.24,522.52,522.52,0,0,0-28-48.49c-10.25-15.59-21.18-30.84-33.55-44.81Z" class="cls-3" transform="translate(0 -626.25)"/><path d="M1196,726.1c-3.18,12.12.24,27.91,10.23,41.6s24,21.75,36.49,22.42c3.19-12.12-.23-27.91-10.22-41.59S1208.56,726.77,1196,726.1Z" class="cls-3" transform="translate(0 -626.25)"/><path d="M1287.77,746c-11.48,5-21.72,17.53-26.24,33.86s-2.14,32.31,5.11,42.52c11.48-5,21.73-17.53,26.24-33.85S1295,756.26,1287.77,746Z" class="cls-3" transform="translate(0 -626.25)"/><path d="M1331,789.91c-12.4,1.8-25.61,11.12-34.3,25.65s-10.68,30.57-6.4,42.35c12.4-1.79,25.6-11.12,34.31-25.65S1335.3,801.7,1331,789.91Z" class="cls-3" transform="translate(0 -626.25)"/><path d="M1355.21,834.2c-12.41,1.8-25.61,11.12-34.31,25.65s-10.67,30.57-6.39,42.36c12.4-1.8,25.6-11.12,34.3-25.65S1359.48,846,1355.21,834.2Z" class="cls-3" transform="translate(0 -626.25)"/><path d="M1384.4,881.2c-12.44-1.43-27.59,4.2-39.72,16s-18.14,26.82-17,39.3c12.45,1.44,27.6-4.19,39.72-16S1385.52,893.68,1384.4,881.2Z" class="cls-3" transform="translate(0 -626.25)"/><path d="M1398.78,932.51c-10.43-4-24.79-2.59-37.94,4.89s-21.72,19.1-23.56,30.15c10.44,4,24.8,2.58,37.94-4.9S1396.94,943.55,1398.78,932.51Z" class="cls-3" transform="translate(0 -626.25)"/><path d="M1410.59,965.71c-10.44-4-24.8-2.59-37.95,4.9s-21.71,19.09-23.56,30.13c10.44,4,24.8,2.59,37.94-4.89S1408.74,976.75,1410.59,965.71Z" class="cls-3" transform="translate(0 -626.25)"/><path d="M1409.29,1008.33c-8.94-3.46-21.25-2.22-32.52,4.2s-18.61,16.37-20.19,25.83c8.94,3.47,21.25,2.22,32.52-4.2S1407.72,1017.79,1409.29,1008.33Z" class="cls-3" transform="translate(0 -626.25)"/><path d="M1407.1,1052.49c-5.34-6-15-9.75-25.9-9.31s-20.22,5-25,11.39c5.34,6,15,9.74,25.9,9.3S1402.26,1058.87,1407.1,1052.49Z" class="cls-3" transform="translate(0 -626.25)"/><path d="M1400.46,1087.25c-2.53-5.91-8.9-11.25-17.28-13.69s-16.63-1.38-21.93,2.24c2.52,5.9,8.9,11.24,17.28,13.68S1395.16,1090.86,1400.46,1087.25Z" class="cls-3" transform="translate(0 -626.25)"/><path d="M1187.92,821.67c8,9.67,22.78,16.13,39.72,16s31.67-6.73,39.53-16.49c-8-9.67-22.79-16.13-39.72-16S1195.78,811.9,1187.92,821.67Z" class="cls-3" transform="translate(0 -626.25)"/><path d="M1211,858.88c8,9.67,22.78,16.12,39.72,16s31.67-6.73,39.53-16.49c-8-9.68-22.78-16.13-39.72-16S1218.85,849.11,1211,858.88Z" class="cls-3" transform="translate(0 -626.25)"/><path d="M1234.09,902.94c8,9.67,22.78,16.13,39.72,16s31.67-6.72,39.53-16.49c-8-9.67-22.79-16.13-39.72-16S1242,893.18,1234.09,902.94Z" class="cls-3" transform="translate(0 -626.25)"/><path d="M1265.27,937.62c6.48,7.87,18.53,13.12,32.3,13s25.77-5.47,32.15-13.41c-6.48-7.87-18.53-13.12-32.3-13S1271.66,929.68,1265.27,937.62Z" class="cls-3" transform="translate(0 -626.25)"/><path d="M1287.11,968c5.24,6.62,15,11,26.09,11s20.81-4.59,26-11.26c-5.23-6.62-15-11-26.09-11S1292.27,961.37,1287.11,968Z" class="cls-3" transform="translate(0 -626.25)"/><path d="M1295.33,1000.43c5.24,6.62,15,11,26.1,11s20.81-4.6,26-11.27c-5.24-6.61-15-11-26.1-11S1300.49,993.76,1295.33,1000.43Z" class="cls-3" transform="translate(0 -626.25)"/><path d="M1306.06,1030.86c3.87,6.48,12.22,11.8,22.54,13.54s19.94-.57,25.71-5.43c-3.86-6.47-12.22-11.8-22.52-13.53S1311.83,1026,1306.06,1030.86Z" class="cls-3" transform="translate(0 -626.25)"/><path d="M1314.05,1067.3c5.53,3.82,14.21,5,23.08,2.54s15.68-8,18.44-14.12c-5.53-3.82-14.21-5-23.08-2.54S1316.81,1061.17,1314.05,1067.3Z" class="cls-3" transform="translate(0 -626.25)"/><path d="M1328.25,1092.26c4.7,2.08,11.39,1.74,17.71-1.38s10.65-8.22,11.85-13.22c-4.7-2.09-11.39-1.76-17.71,1.37S1329.45,1087.25,1328.25,1092.26Z" class="cls-3" transform="translate(0 -626.25)"/><path d="M1340.13,1101.56a13.34,13.34,0,0,0,18.07-8.92,13.34,13.34,0,0,0-18.07,8.92Z" class="cls-3" transform="translate(0 -626.25)"/><path d="M1341.44,1112a13.35,13.35,0,0,0,18.08-8.93,13.35,13.35,0,0,0-18.08,8.93Z" class="cls-3" transform="translate(0 -626.25)"/><path d="M1508.48,744.53c-12.92,15.61-24.16,32.46-34.7,49.7a571.26,571.26,0,0,0-28.58,53.49,599.92,599.92,0,0,0-22.93,56.2,592.23,592.23,0,0,0-16.86,58.36,565.42,565.42,0,0,0-14.71,120.58A590.24,590.24,0,0,0,1402.43,1204l8.52-1.82a583,583,0,0,1-13.42-119.27,560.93,560.93,0,0,1,12.71-119.52,592.61,592.61,0,0,1,15.84-58.15A601.22,601.22,0,0,1,1448,849a565.24,565.24,0,0,1,27.63-53.68c10.22-17.33,21.2-34.32,33.77-50Z" class="cls-4" transform="translate(0 -626.25)"/><path d="M1552.61,678c4.06,12.88,1.2,30.07-8.83,45.33s-24.68,24.68-38.12,26.05c-4.07-12.88-1.2-30.07,8.83-45.32S1539.17,679.35,1552.61,678Z" class="cls-4" transform="translate(0 -626.25)"/><path d="M1454.88,704.26c12.62,4.82,24.32,17.74,30,35.08s4,34.68-3.27,46.07c-12.62-4.83-24.31-17.75-30-35.08S1447.61,715.65,1454.88,704.26Z" class="cls-4" transform="translate(0 -626.25)"/><path d="M1410.61,753.77c13.45,1.29,28.16,10.63,38.28,25.82S1462,812,1458,824.86c-13.45-1.29-28.15-10.63-38.28-25.82S1406.62,766.68,1410.61,753.77Z" class="cls-4" transform="translate(0 -626.25)"/><path d="M1386.89,802.73c13.45,1.29,28.15,10.63,38.29,25.82s13.09,32.36,9.11,45.27c-13.46-1.29-28.16-10.63-38.29-25.82S1382.9,815.64,1386.89,802.73Z" class="cls-4" transform="translate(0 -626.25)"/><path d="M1357.92,854.87c13.32-2.2,29.93,3.07,43.61,15.16s20.93,27.93,20.39,41.43c-13.34,2.2-29.94-3.07-43.62-15.16S1357.36,868.37,1357.92,854.87Z" class="cls-4" transform="translate(0 -626.25)"/><path d="M1345.12,910.87c11-4.9,26.57-4.09,41.11,3.29s24.39,19.42,27,31.21c-11,4.9-26.57,4.09-41.12-3.28S1347.69,922.67,1345.12,910.87Z" class="cls-4" transform="translate(0 -626.25)"/><path d="M1334.15,947.25c11-4.91,26.57-4.1,41.11,3.27s24.39,19.43,27,31.22c-11,4.9-26.56,4.09-41.1-3.28S1336.72,959,1334.15,947.25Z" class="cls-4" transform="translate(0 -626.25)"/><path d="M1337.78,993.07c9.44-4.2,22.77-3.51,35.23,2.81s20.9,16.65,23.11,26.76c-9.46,4.2-22.77,3.5-35.24-2.81S1340,1003.17,1337.78,993.07Z" class="cls-4" transform="translate(0 -626.25)"/><path d="M1342.46,1040.49c5.44-6.71,15.65-11.28,27.4-11.37s22,4.32,27.56,11c-5.43,6.71-15.65,11.28-27.39,11.37S1348,1047.12,1342.46,1040.49Z" class="cls-4" transform="translate(0 -626.25)"/><path d="M1351.42,1077.58c2.42-6.49,9-12.58,17.9-15.65s17.83-2.35,23.73,1.27c-2.41,6.48-9,12.56-17.89,15.64S1357.33,1081.19,1351.42,1077.58Z" class="cls-4" transform="translate(0 -626.25)"/><path d="M1566.36,780.46c-8.07,10.83-23.68,18.57-41.92,19.35S1490,794.23,1481,784.12c8.07-10.83,23.68-18.57,41.92-19.34S1557.39,770.36,1566.36,780.46Z" class="cls-4" transform="translate(0 -626.25)"/><path d="M1543.48,821.74c-8.08,10.83-23.69,18.56-41.93,19.34s-34.46-5.58-43.43-15.68c8.07-10.84,23.69-18.56,41.92-19.35S1534.5,811.63,1543.48,821.74Z" class="cls-4" transform="translate(0 -626.25)"/><path d="M1520.91,870.4c-8.07,10.83-23.68,18.56-41.93,19.34s-34.46-5.58-43.43-15.68c8.08-10.84,23.69-18.57,41.93-19.35S1511.94,860.29,1520.91,870.4Z" class="cls-4" transform="translate(0 -626.25)"/><path d="M1489.15,909.37c-6.56,8.81-19.26,15.11-34.09,15.74s-28-4.54-35.33-12.76c6.57-8.81,19.27-15.1,34.1-15.73S1481.86,901.16,1489.15,909.37Z" class="cls-4" transform="translate(0 -626.25)"/><path d="M1467.24,943.28c-5.29,7.4-15.54,12.67-27.53,13.18s-22.65-3.86-28.55-10.77c5.29-7.4,15.54-12.67,27.53-13.18S1461.33,936.36,1467.24,943.28Z" class="cls-4" transform="translate(0 -626.25)"/><path d="M1460.08,978.59c-5.29,7.39-15.54,12.66-27.53,13.17S1409.91,987.91,1404,981c5.29-7.39,15.54-12.66,27.53-13.18S1454.17,971.67,1460.08,978.59Z" class="cls-4" transform="translate(0 -626.25)"/><path d="M1450.11,1011.92c-3.82,7.17-12.53,13.34-23.55,15.75s-21.5.44-28-4.49c3.82-7.18,12.54-13.35,23.55-15.76S1443.65,1007,1450.11,1011.92Z" class="cls-4" transform="translate(0 -626.25)"/><path d="M1443.43,1051.57c-5.76,4.41-15,6.15-24.72,4s-17.31-7.78-20.6-14.24c5.76-4.4,15-6.14,24.72-3.94S1440.14,1045.11,1443.43,1051.57Z" class="cls-4" transform="translate(0 -626.25)"/><path d="M1429.45,1079.19c-5,2.49-12.18,2.48-19.14-.55s-11.91-8.3-13.46-13.62c5-2.49,12.17-2.49,19.14.54S1427.89,1073.87,1429.45,1079.19Z" class="cls-4" transform="translate(0 -626.25)"/><path d="M1417.15,1089.83c-3.18,1.85-7.69,2.06-12,.21s-7.18-5.29-8-8.87c3.17-1.85,7.68-2.06,11.94-.21S1416.34,1086.25,1417.15,1089.83Z" class="cls-4" transform="translate(0 -626.25)"/><path d="M1416.27,1101.11c-3.17,1.85-7.68,2.06-11.94.21s-7.18-5.3-8-8.88c3.18-1.85,7.68-2.06,12-.21S1415.46,1097.53,1416.27,1101.11Z" class="cls-4" transform="translate(0 -626.25)"/><path d="M1320.79,1070c-19.08-28-39.18-55.26-60.62-81.48l.35-.3c22,25.8,42.65,52.72,62.34,80.34a970.09,970.09,0,0,1,54.82,85.78q6,10.77,11.71,21.77c-1.48.83-3,1.66-4.43,2.51q-5.46-11.13-11.3-22.07A966.59,966.59,0,0,0,1320.79,1070Z" class="cls-2" transform="translate(0 -626.25)"/><path d="M1239.11,952.85c7,.65,14.34,5.34,18.94,13s5.31,16.31,2.58,22.83c-7-.65-14.34-5.34-18.94-13S1236.37,959.36,1239.11,952.85Z" class="cls-2" transform="translate(0 -626.25)"/><path d="M1291.43,969.18c2.87,5.58,3,14-.21,22.31s-9,14.46-14.85,16.66c-2.87-5.58-3-14,.2-22.32S1285.55,971.39,1291.43,969.18Z" class="cls-2" transform="translate(0 -626.25)"/><path d="M1293.19,1030.68c-4.78,4.07-12.91,6.15-21.76,4.93s-16.13-5.42-19.63-10.63c4.78-4.09,12.92-6.16,21.77-4.93S1289.7,1025.46,1293.19,1030.68Z" class="cls-2" transform="translate(0 -626.25)"/><path d="M1314.31,1057.93c-4.78,4.08-12.92,6.15-21.77,4.93s-16.13-5.41-19.63-10.64c4.78-4.07,12.92-6.14,21.77-4.92S1310.81,1052.71,1314.31,1057.93Z" class="cls-2" transform="translate(0 -626.25)"/><path d="M1328.64,1079.64c-4.77,4.07-12.91,6.14-21.76,4.92s-16.13-5.41-19.63-10.63c4.78-4.08,12.92-6.15,21.77-4.93S1325.15,1074.42,1328.64,1079.64Z" class="cls-2" transform="translate(0 -626.25)"/><path d="M1344.55,1103.6c-4.79,4.07-12.93,6.14-21.78,4.92s-16.12-5.41-19.62-10.63c4.78-4.07,12.92-6.14,21.77-4.93S1341.05,1098.38,1344.55,1103.6Z" class="cls-2" transform="translate(0 -626.25)"/><path d="M1309.8,992.56c2.88,5.58,3,14-.2,22.32s-9,14.45-14.86,16.65c-2.86-5.59-3-14,.2-22.32S1303.92,994.76,1309.8,992.56Z" class="cls-2" transform="translate(0 -626.25)"/><path d="M1327.37,1016.62c2.87,5.59,3,14-.21,22.32s-9,14.45-14.85,16.66c-2.87-5.59-3-14,.2-22.32S1321.49,1018.82,1327.37,1016.62Z" class="cls-2" transform="translate(0 -626.25)"/><path d="M1344.08,1040.88c2.87,5.59,3,14-.21,22.32s-9,14.45-14.85,16.66c-2.87-5.59-3-14,.21-22.32S1338.2,1043.09,1344.08,1040.88Z" class="cls-2" transform="translate(0 -626.25)"/><path d="M1360.28,1064.65c2.87,5.59,3,14-.21,22.32s-9,14.45-14.85,16.65c-2.87-5.58-3-14,.2-22.31S1354.4,1066.86,1360.28,1064.65Z" class="cls-2" transform="translate(0 -626.25)"/><path d="M1316.9,1160.63h127.91c21.24,10.85,34.73,27,34.73,45,0,19.27-15.37,36.38-39.14,47.18H1321.31c-23.78-10.8-39.15-27.91-39.15-47.18C1282.16,1187.63,1295.66,1171.48,1316.9,1160.63Z" class="cls-5" transform="translate(0 -626.25)"/><path d="M1328.93,1170.74c-12.61-1.47-29.5,8-33.87,27.15-5.94,37.71,31.83,48.78,52.44,39.21-18-4.51-37.61-12.75-38.19-31.31-1-9.72,4.78-19.08,4.88-19.37a53.49,53.49,0,0,1,5.41-7.26A54.23,54.23,0,0,1,1328.93,1170.74Z" class="cls-6" transform="translate(0 -626.25)"/><rect width="141.29" height="8.87" x="1310.93" y="1155.1" class="cls-7" transform="translate(2763.15 1692.81) rotate(180)"/><rect width="18.88" height="120.83" x="739.03" y="703.11" class="cls-8"/><path d="M797.11,1265.85v14.47c0,9.7-9,17.56-20.17,17.56h-2.25v16.32c0,4.08-3.81,7.39-8.5,7.39H732.92c-4.69,0-8.49-3.31-8.49-7.39v-17.12c-8.21-2.23-14.16-8.89-14.16-16.76v-14.47Z" class="cls-9" transform="translate(0 -626.25)"/><rect width="24.37" height="28.51" x="735.86" y="1321.59" class="cls-9" transform="translate(1496.09 2045.43) rotate(180)"/><polygon points="735.72 860.17 760.37 860.17 760.37 839.11 760.37 822.16 735.72 822.16 735.72 860.17" class="cls-10"/><polygon points="851.28 885.34 760.37 839.11 760.37 860.17 825.56 885.34 825.56 889.96 851.28 889.96 851.28 885.34" class="cls-10"/><polygon points="644.81 885.34 735.72 839.11 735.72 860.17 670.53 885.34 670.53 889.96 644.81 889.96 644.81 885.34" class="cls-10"/><polygon points="756.34 839.11 756.34 889.96 762.43 889.96 762.43 893.55 735.72 893.55 735.72 889.96 741.37 889.96 739.6 839.11 756.34 839.11" class="cls-10"/><path d="M653.65,967.06v239.36H786.26l-11.8-242c-1-19.93-12.53-35.58-26.83-36.88-.61,0-1.25-.07-1.89-.07h-63.3C666.56,927.44,653.65,945.17,653.65,967.06Z" class="cls-11" transform="translate(0 -626.25)"/><path d="M707.52,932.61c.64,0,1.28,0,1.89.07,14.31,1.3,25.89,17,26.83,36.88l11.55,236.86h38.47l-11.8-242c-1-19.93-12.53-35.58-26.83-36.88-.61,0-1.25-.07-1.89-.07h-63.3a22.93,22.93,0,0,0-14.22,5.17Z" class="cls-12" transform="translate(0 -626.25)"/><path d="M671.49,927.43h21.78a39.62,39.62,0,0,0-39.62,39.62v239.39H631.87V967.05A39.62,39.62,0,0,1,671.49,927.43Z" class="cls-13" transform="translate(0 -626.25)"/><path d="M810.88,831.38l.18.18Z" class="cls-14" transform="translate(0 -626.25)"/><path d="M720,845.86l-.27,0a1.56,1.56,0,0,1-1.28-1.81c20.28-115.69,122.88-114.37,123.88-114.38a1.57,1.57,0,0,1,1.53,1.6,1.53,1.53,0,0,1-1.61,1.53c-1,0-100.9-1.21-120.71,111.79A1.56,1.56,0,0,1,720,845.86Z" class="cls-15" transform="translate(0 -626.25)"/><path d="M2136.09,1524.16c0,11.37-346.93,20.59-774.9,20.59s-774.91-9.22-774.91-20.59,346.94-20.59,774.91-20.59S2136.09,1512.79,2136.09,1524.16Z" class="cls-16" transform="translate(0 -626.25)"/><rect width="218.9" height="277.2" x="1238.99" y="625.25" class="cls-17"/><rect width="42.29" height="277.2" x="1457.9" y="1251.5" class="cls-18" transform="translate(2958.09 2153.95) rotate(180)"/><polygon points="1269.78 707.04 1447.67 707.04 1447.67 637.81 1442.89 703.9 1269.78 707.04" class="cls-18"/><polygon points="1266.1 794.67 1443.99 794.67 1443.99 725.43 1439.21 791.52 1266.1 794.67" class="cls-18"/><path d="M1366.29,1282.07c0,3.41-6.56,6.17-14.65,6.17s-14.65-2.76-14.65-6.17,6.56-6.16,14.65-6.16S1366.29,1278.67,1366.29,1282.07Z" class="cls-18" transform="translate(0 -626.25)"/><path d="M1371,1383.51c0,3.64-7.36,6.59-16.44,6.59s-16.45-2.95-16.45-6.59,7.37-6.59,16.45-6.59S1371,1379.87,1371,1383.51Z" class="cls-18" transform="translate(0 -626.25)"/><polygon points="1265.63 881.59 1443.52 881.59 1443.52 812.36 1438.74 878.45 1265.63 881.59" class="cls-18"/><path d="M1370.55,1470.44c0,3.64-7.36,6.59-16.45,6.59s-16.43-3-16.43-6.59,7.36-6.59,16.43-6.59S1370.55,1466.79,1370.55,1470.44Z" class="cls-18" transform="translate(0 -626.25)"/><rect width="218.9" height="14.89" x="1238.99" y="625.25" class="cls-19"/><rect width="42.16" height="14.89" x="1458.03" y="625.25" class="cls-20"/><path d="M928.28,1244.75l18.87-57.5a41.67,41.67,0,0,0-37.42-54.61l-155.49-8.11-1.1,21,155.49,8.11a20.62,20.62,0,0,1,18.52,27l-18.88,57.51Z" class="cls-21" transform="translate(0 -626.25)"/><path d="M659.94,1271.86H900a43.4,43.4,0,0,0-43.39-43.4H703.33a43.4,43.4,0,0,0-43.39,43.4Z" class="cls-13" transform="translate(0 -626.25)"/><path d="M709.79,1271.86H949.85a43.4,43.4,0,0,0-43.39-43.4H753.18a43.4,43.4,0,0,0-43.39,43.4Z" class="cls-11" transform="translate(0 -626.25)"/><path d="M944.6,1105.09l-21.8-9.63h0c-8.5-4.24-17.85-4.61-22.54-5.39h0c-5.12-.84-11.48-1.79-19.5-3a92.42,92.42,0,0,0,3.37,21.66c1.91-.25,3.79-.49,5.62-.71,9.42-1.1,30.37.43,36.88,10s6.45,16.15,8.51,15.48.14-10.86-3-15.82a70.91,70.91,0,0,1-5-9.2s8.44,9.79,9.73,15.07,4,10.67,5.28,10.25-1.53-9.76-2.63-15.38a37.38,37.38,0,0,0-3.36-9.92l6.32,3s9.08,13.87,9.93,10.53S944.6,1105.09,944.6,1105.09Z" class="cls-22" transform="translate(0 -626.25)"/><path d="M865.81,1082.46c-43.13-6.1-53.66,1.06-53.66-18.3,0-26.27,29.1-88.64,15.94-106.14-2.15-2.85-18.72-14.35-26.17-6.71-25.4,26.1-37.24,122.64-17.56,154.14,12.07,19.32,62.51,8.24,99.76,3.33-2.12-7.22.37-19.1,0-26.32C879.51,1081.8,871.6,1083.29,865.81,1082.46Z" class="cls-23" transform="translate(0 -626.25)"/><path d="M886.52,1089.79l25,9.61s10,13.7,9,17-11.39-10.53-11.39-10.53L894,1099.57Z" class="cls-24" transform="translate(0 -626.25)"/><path d="M872.81,1094.39s11.82,12.54,11.82,15.2,1,9,3.39,9,2.39-11,2.39-14.46-5.9-12.94-6.91-12.94S872.81,1094.39,872.81,1094.39Z" class="cls-24" transform="translate(0 -626.25)"/><path d="M916.17,1442.9c-2.24,2.16-12.53-2.48-12.53,6.48,0,3,6.2,3.43,7.55,13.82.92,7-3.63,23.44-1.44,29.66a36.6,36.6,0,0,0,13.5,17.78c0-7.32-3.54-11.22-3.54-18.94s24.27-33.36,26.38-58.7a29.3,29.3,0,0,1,1.4-6.13c-7.2-4.45-14.39-8.76-20.4-13.87C921,1430.47,916.74,1442.35,916.17,1442.9Z" class="cls-22" transform="translate(0 -626.25)"/><path d="M920.35,1451.85c0-2.94-2.41-5.88-4.38-8.82-2.58,1.78-12.33-2.38-12.33,6.35,0,9-19.28,34-19.28,34l3.85,3.39s19-31.5,20.57-23.78-10.93,31.2-10.93,31.2l24,20.38,1.35-3.91c0-7.21-3.41-11.12-3.52-18.6C908,1483,922.1,1463.62,920.35,1451.85Z" class="cls-25" transform="translate(0 -626.25)"/><path d="M1007,1230.48c-13-35.24-185-72.42-185-72.42l-20.53,7.28L783,1189.9l171.69,55.42s-17.7,117.75-37.93,177.52c6.75,5.89,18.29,3.86,26.37,9C956.6,1388,1014.22,1250.11,1007,1230.48Z" class="cls-26" transform="translate(0 -626.25)"/><path d="M962.86,1414c-8.54.52-17.12,1.26-25.74,2.28,2.44,17,3.58,30.64,1.49,34.33-1.62,2.86-3.44,5.72-5.19,8.45-4.93,7.69-9.37,14.41-7.71,17.71,1,2,11.89-.14,15.89,9.59,4.91,12,3,36,3,36l36.77,6s5.09-2.3-2.44-9.73-13.73-9.84-16.17-17.93-.22-49.41-.22-75.87C962.53,1422.05,962.65,1418.38,962.86,1414Z" class="cls-27" transform="translate(0 -626.25)"/><path d="M983.44,1525.2h0c-.32-1.39-5.08-12.22-16.6-19l-8,5.43c-9.23-11.3-9.09-29.46-14.92-41-1.31-3.88-5.52-8.71-10.49-11.67-4.94,7.69-9.38,14.41-7.72,17.71,2.27,4.46,2,44.51,2,44.51h5.53s-3.32-33.06,2.22-35,6.87,38.26,6.87,38.26l40.86,5.8S985,1529.31,983.44,1525.2Z" class="cls-28" transform="translate(0 -626.25)"/><path d="M932.86,1204.07l-132-29.65-88.72,13.88s-11.55,37.38,8.23,52.36c7.8,5.92,174.93,15.2,174.93,15.2s25.51,123.1,31.33,163.83c10.53-1.25,27.57-4.22,38-4.84C966.59,1373.52,943,1207,932.86,1204.07Z" class="cls-29" transform="translate(0 -626.25)"/><path d="M824.72,919c7.31,1.27,24.47,30.74,28.45,41,.79,2.07,12.1,40,1.4,52.66s-25.88,49.12-34.21,66.55c-3.94,8.26-28.25,42.57,2.49,61.09,7.72,4.65,20.72,3,16.71,9.68s-90.55,56.6-126.3,46.62-7-22.1-3.68-31.18-15-11.2-7.35-21.49,36.25-35.41,52.46-90.75c1.59-5.45,5.72-108.74,11.81-125.07C770.58,917.18,808.31,916.11,824.72,919Z" class="cls-30" transform="translate(0 -626.25)"/><path d="M870.06,803.27c-3,1.24-23.37-10-49,2.72-25,12.43-33.54,55.26-35.47,77.17a42,42,0,0,0,.87,13.43A66.76,66.76,0,0,1,807,901.25c10,4.2,25.2,12,36.8,14.48,11.83,2.57,41.65-58.21,40.39-77.76S870.06,803.27,870.06,803.27Z" class="cls-31" transform="translate(0 -626.25)"/><path d="M870.06,803.27s20.5,10.34,20.61,28.09-24,65-10.69,72c0,0-7.76,1.58-13-.63,0,0-5.78,4.81-.83,17,0,0-11.73,0-22.35-4-.74-.28-9.35-1-7.58-7.89,2.09-8.11,14.83-23,16.87-30.89C861.74,843.7,870.06,803.27,870.06,803.27Z" class="cls-32" transform="translate(0 -626.25)"/><path d="M869.43,806.3a24.75,24.75,0,0,1,6,3.11S892.8,825.79,888,841.3s-9.1,20.6-11.14,31c-3.21,16.39-23.77,41.39-40.42,34.69,2.68-8.27,14.67-22.48,16.64-30.08C860.33,849.14,867.34,816.29,869.43,806.3Z" class="cls-33" transform="translate(0 -626.25)"/><path d="M822.44,882.17,804,917.75s14.46,50.71,41.5,45.41c.47-.1-8.87-8.94-10.62-23.17-1.37-11.2,3.85-25.42,9.4-43.52C847,887.53,822.44,882.17,822.44,882.17Z" class="cls-27" transform="translate(0 -626.25)"/><path d="M822.44,882.17l-11.22,21.61c13.5,9.27,29.28,1.56,31-.8,2.85-7.13.51-3.6,2-6.51C848.56,888.17,822.44,882.17,822.44,882.17Z" class="cls-22" transform="translate(0 -626.25)"/><path d="M873.43,808.52S889.79,824.1,885.19,839s-8.7,19.72-10.68,29.7S859,902.21,841.92,903s-27.55-30.89-26.87-43.09,5.36-28.27,15.52-43.93S863.74,801.45,873.43,808.52Z" class="cls-27" transform="translate(0 -626.25)"/><path d="M819.48,881.07c-3.13-8-4.71-16.19-4.43-21.17.68-12.21,5.36-28.27,15.52-43.93s33.17-14.52,42.86-7.45c0,0,16.36,15.58,11.76,30.43-1.53,5-3,8.83-4.39,12.13h0l-18.08-7.53s7-15.13,4.84-20.45l-7.66,18.47-12.59-4.64s-1.49-10,1.48-17c0,0-4.19,9.82-3.67,16.2,0,0-8.53-3.82-10.73,1.4-1.8,4.27-12,31.44-14,38.93A44,44,0,0,0,819.48,881.07Z" class="cls-22" transform="translate(0 -626.25)"/><path d="M890.26,825c-1.73-9.72-11-17.7-20.21-21.74-12.49-11.65-40.82-17.23-66.93,7.51-15,14.23-41.31,74-35.9,73.73.54,0,19.26,12.09,19.26,12.09l.38-10.23c1.08,2.67,5.43,5.13,10.95,7.27-2-13.14,3.87-21.84,3.87-21.84-2.49,10.42-.55,18.39,2.27,24a225.75,225.75,0,0,0,25.27,5.93c-.05-.24-10.48-20-6.82-34.07,1.94-7.48,8.68-26.34,10.48-30.61,2.21-5.22,11.42-2.87,11.42-2.87-.52-6.37,6.64-18,6.64-18-3,7-3.08,19.54-3.08,19.54l12.23,5.17,9-21.36c2.16,5.31-3.92,23.51-3.92,23.51l17.42,6.78A28.53,28.53,0,0,0,890.26,825Z" class="cls-34" transform="translate(0 -626.25)"/><path d="M869.55,804.46c-21.59-9.49-39-10.4-54.65,7.45-15.09,17.13-38.1,56.15-38.7,79l10.28,5.7c-.63-18.6,15.32-60.48,26.23-75.71C826.35,801.81,838.09,792.87,869.55,804.46Z" class="cls-35" transform="translate(0 -626.25)"/><path d="M872.93,807.06c6.68,5.08,13.55,12,14.23,20.31.66,7.69-3.63,14.67-7.66,21.14l-1.86-.72C886.76,834.36,892.94,823.43,872.93,807.06Z" class="cls-36" transform="translate(0 -626.25)"/><path d="M871.92,807.31c13,12.47,7.9,24.26-1.49,37.67l-1.84-.71C879,831.54,884.6,820.15,871.92,807.31Z" class="cls-36" transform="translate(0 -626.25)"/><path d="M869.37,805.55c-9.44,10.11-12.09,20.32-13.62,33.41l-1.75-.74C856.26,825.38,859.65,815,869.37,805.55Z" class="cls-36" transform="translate(0 -626.25)"/><path d="M856,874.86c-1.31-3.9.47-10.28,2.41-14-.57,4-2,11-.95,14.09l.21.64c-.24,0-3.82,1.82-6.95.38A14.22,14.22,0,0,0,856,874.86Z" class="cls-32" transform="translate(0 -626.25)"/><path d="M857.48,847a10.68,10.68,0,0,0-4-4.39c-3.07-2-11.69-.81-11.69-.81s7.85.8,9.81,1.63,4.35,3.93,4.35,3.93Z" class="cls-37" transform="translate(0 -626.25)"/><path d="M866.4,851.22a9.8,9.8,0,0,1,5.12-.8c3.18.27,8.44,5.4,8.44,5.4s-5.81-3.46-7.59-3.92-5.1.35-5.1.35Z" class="cls-37" transform="translate(0 -626.25)"/><path d="M850.17,855.46c-.48,1.28-1.64,2-2.61,1.67s-1.34-1.69-.86-3a2.22,2.22,0,0,1,2.6-1.67C850.26,852.85,850.65,854.18,850.17,855.46Z" class="cls-34" transform="translate(0 -626.25)"/><path d="M871.41,863.56a1.93,1.93,0,1,1-3.47-1.3c.48-1.28,1.64-2,2.61-1.67S871.89,862.27,871.41,863.56Z" class="cls-34" transform="translate(0 -626.25)"/><path d="M840,889.11a8.47,8.47,0,0,0,4.44,2.77C842.74,892.26,840.62,890.79,840,889.11Z" class="cls-31" transform="translate(0 -626.25)"/><path d="M839.74,875c6,6.26,16.82,10.88,16.82,10.88a21,21,0,0,1-3.39,2.21,59.77,59.77,0,0,1-13.43-8.62A26.15,26.15,0,0,1,839.74,875Z" class="cls-38" transform="translate(0 -626.25)"/><path d="M839.74,879.5a59.77,59.77,0,0,0,13.43,8.62C845.39,892.14,840.52,888.34,839.74,879.5Z" class="cls-31" transform="translate(0 -626.25)"/><path d="M854.35,856.26c-1-2.45-4.35-4.54-6.7-4.94-3.38-.57-6.13,1.34-8.23,1,2.67,1.83,4.92-1.1,11.57,1.81A13.36,13.36,0,0,1,854.35,856.26Z" class="cls-31" transform="translate(0 -626.25)"/><path d="M863.45,860.89c2.23-1.39,6.2-1,8.33,0,3,1.56,4.11,4.72,6,5.7-3.24-.12-3.3-3.8-10.37-5.44A13.12,13.12,0,0,0,863.45,860.89Z" class="cls-31" transform="translate(0 -626.25)"/><path d="M843.38,865.89c-.89,2.4-4.77,3.18-8.64,1.73s-6.29-4.56-5.4-7,4.77-3.17,8.65-1.73S844.28,863.49,843.38,865.89Z" class="cls-22" transform="translate(0 -626.25)"/><path d="M871.82,876.78c-.67,1.82-3.32,2.52-5.89,1.56s-4.12-3.22-3.44-5,3.32-2.52,5.9-1.56S872.5,875,871.82,876.78Z" class="cls-22" transform="translate(0 -626.25)"/><path d="M905.75,1112.79c-6-26.91-35-26.94-45.12-28.4h0c-4-.58-8.81-1.22-14.35-1.93-2.4,6.69-5.27,13.5-5.75,20.82,2.74-.32,5.42-.62,8-.89,10.83-1.1,34.89.42,42.37,10s7.4,16.15,9.77,15.48.16-10.86-3.47-15.82a67,67,0,0,1-5.69-9.2s9.7,9.78,11.18,15.07,4.58,10.67,6.06,10.25S907,1118.41,905.75,1112.79Z" class="cls-27" transform="translate(0 -626.25)"/><rect width="18.88" height="138.51" x="2007.36" y="725.37" class="cls-8"/><path d="M1968.16,1288.1v14.48c0,9.69,9,17.55,20.18,17.55h2.24v16.32c0,4.08,3.8,7.39,8.49,7.39h33.27c4.7,0,8.5-3.31,8.5-7.39v-17.12c8.21-2.22,14.16-8.88,14.16-16.75V1288.1Z" class="cls-9" transform="translate(0 -626.25)"/><rect width="24.37" height="28.51" x="2005.04" y="717.59" class="cls-9"/><polygon points="2029.55 866.19 2004.89 866.19 2004.89 845.13 2004.89 828.18 2029.55 828.18 2029.55 866.19" class="cls-10"/><polygon points="1913.99 891.35 2004.89 845.13 2004.89 866.19 1939.71 891.35 1939.71 895.97 1913.99 895.97 1913.99 891.35" class="cls-10"/><polygon points="2120.46 891.35 2029.55 845.13 2029.55 866.19 2094.73 891.35 2094.73 895.97 2120.46 895.97 2120.46 891.35" class="cls-10"/><polygon points="2008.92 845.13 2008.92 895.97 2002.84 895.97 2002.84 899.57 2029.55 899.57 2029.55 895.97 2023.9 895.97 2025.67 845.13 2008.92 845.13" class="cls-10"/><path d="M1837,1267l-18.88-57.51a41.69,41.69,0,0,1,37.43-54.61l155.49-8.11,1.1,21-155.49,8.11a20.61,20.61,0,0,0-18.52,27l18.87,57.51Z" class="cls-21" transform="translate(0 -626.25)"/><path d="M2111.62,989.31v239.37H1976.94l12-242c1-19.93,12.72-35.58,27.25-36.87.62,0,1.27-.07,1.91-.07h64.29C2098.51,949.7,2111.62,967.42,2111.62,989.31Z" class="cls-11" transform="translate(0 -626.25)"/><path d="M2105.33,1294.11H1865.27a43.39,43.39,0,0,1,43.39-43.39h153.28a43.39,43.39,0,0,1,43.39,43.39Z" class="cls-13" transform="translate(0 -626.25)"/><path d="M2093.78,949.69H2072a39.62,39.62,0,0,1,39.63,39.61v239.4h21.78V989.3A39.62,39.62,0,0,0,2093.78,949.69Z" class="cls-13" transform="translate(0 -626.25)"/><path d="M2055.48,1294.11H1815.42a43.38,43.38,0,0,1,43.39-43.39h153.28a43.39,43.39,0,0,1,43.39,43.39Z" class="cls-11" transform="translate(0 -626.25)"/><path d="M1954.39,853.63l-.18.18Z" class="cls-14" transform="translate(0 -626.25)"/><polygon points="1104.2 899.43 1104.2 581.79 1556.82 581.79 1556.82 899.43 1571.27 899.43 1571.27 565.78 1087.35 565.78 1087.35 899.43 1104.2 899.43" class="cls-13"/><path d="M1167.13,1145h-64.4a10.16,10.16,0,0,1,10.15-10.15h54.25Z" class="cls-39" transform="translate(0 -626.25)"/><polygon points="1046.56 299.22 1042.2 299.22 978.83 473.61 1169.21 471 1046.56 299.22" class="cls-40"/><polygon points="1046.56 299.22 986.39 471 1171.24 471 1225.31 323.64 1046.56 299.22" class="cls-39"/><path d="M1104.1,1042.31l1.75-9.58,18.89,25.57,16.86,65.11v14.82l-5.23,1.75s-2.33-18.61-6.69-29.07S1104.1,1042.31,1104.1,1042.31Z" class="cls-40" transform="translate(0 -626.25)"/><path d="M1105.85,1032.73S1146.4,1130,1136.37,1140H1163l-36.2-107.25Z" class="cls-41" transform="translate(0 -626.25)"/><rect width="170.4" height="12.2" x="925.56" y="506.51" class="cls-39"/><path d="M1450.39,1142.47h64.4a10.15,10.15,0,0,0-10.14-10.15h-54.26Z" class="cls-39" transform="translate(0 -626.25)"/><polygon points="1570.97 296.73 1575.33 296.73 1638.69 471.12 1448.32 468.51 1570.97 296.73" class="cls-40"/><polygon points="1570.97 296.73 1631.14 468.51 1446.28 468.51 1392.22 321.15 1570.97 296.73" class="cls-39"/><path d="M1513.42,1040l-1.74-9.78-18.89,26.08-16.87,66.37v15.11l5.24,1.79s2.33-19,6.69-29.64S1513.42,1040,1513.42,1040Z" class="cls-40" transform="translate(0 -626.25)"/><path d="M1511.68,1030.23s-40.55,99.12-30.52,109.35h-26.6l36.19-109.35Z" class="cls-41" transform="translate(0 -626.25)"/><rect width="170.4" height="12.2" x="1521.56" y="1130.27" class="cls-39" transform="translate(3213.53 1646.49) rotate(180)"/><rect width="38.44" height="25.36" x="1095.96" y="546.31" class="cls-13"/><rect width="75.23" height="25.36" x="1225.31" y="546.31" class="cls-13"/><rect width="75.23" height="25.36" x="1361.72" y="546.31" class="cls-13"/><rect width="53.15" height="25.36" x="1508.4" y="546.31" class="cls-13"/><path d="M1894.13,1185.54c1.73-10.52,22.66-34.39,33-38.24s55.83-35.75,70.12-54.39c2.4-3.12,5.08-9.41,8-17.68,6.93,6.75,14.14,13.47,20.82,20.56-6.81,16.52-14.19,28.79-21.47,32.49-30.39,15.47-64.19,31.52-67.75,32.85s-15.68,15.83-18.09,21.21-3.87,22.33-3.66,25.92c.26,4.4-2.85,7.5-4.55-1.28s.13-20.25.13-20.25-6.4,9.5-8,13.09,3.56,18.64,1.08,21.17-4.41-5.24-6.14-9.88,1.29-23.2,1.29-23.2-3,17.41-4.37,16.78S1892.4,1196.05,1894.13,1185.54Z" class="cls-22" transform="translate(0 -626.25)"/><path d="M2051.67,946.05c11.71,1.91-4.07,97.32-25.66,149.74-6.68-7.09-13.89-13.81-20.82-20.56C2019.54,1034.17,2038.84,944,2051.67,946.05Z" class="cls-42" transform="translate(0 -626.25)"/><path d="M2007,1058.21s-6.72,6.08-6.91,10.36-10.14,9.79-6.09,11.62,30.74,26.74,30.74,26.74,16.18-2.5,15.67-11,5-1.88,1.23-11.86S2015.55,1053,2007,1058.21Z" class="cls-43" transform="translate(0 -626.25)"/><path d="M2040.72,1092.44c-7.69-13.44-18.92-21.64-30.52-24.59a1.12,1.12,0,0,0-.56,2.17C2010.37,1070.32,2027.74,1072.45,2040.72,1092.44Z" class="cls-42" transform="translate(0 -626.25)"/><path d="M1997,1077.09c31.14,4.07,36.94,23.22,36.76,23a1.12,1.12,0,0,0,2.1-.79C2035.67,1099.17,2029.19,1079.71,1997,1077.09Z" class="cls-42" transform="translate(0 -626.25)"/><path d="M1886.05,1188.48c.31,6.16-55,88.79-53.68,115.7s-14.54,89.54-27.85,109.61-35.55,39.52-38.14,62.13c-.35,3,5.57,18.2,2.38,21.74-8.25,9.13-17.65,4-25.1,12.24s-16.56,7.7-26,9.59c-3.26.65-10.39-.85-4.67-5.44,13.94-11.19,26.24-31.81,28.66-42.39,3.79-16.58,82.33-288.41,82.33-288.41Z" class="cls-22" transform="translate(0 -626.25)"/><path d="M1714.4,1513.59s15.4-.1,30.89-13.17,21.65-20.77,21.65-20.77,8.32,7.82,4.53,19.19c-.81,2.41-11.21,29.5-11.21,29.5l-5.92-.45s7.42-23.19,5.83-23.3-11.5,2.57-14.26,8-4.07,10.57-11.3,12.81-31.71-1-31.71-1C1701.33,1520.78,1710.29,1514,1714.4,1513.59Z" class="cls-44" transform="translate(0 -626.25)"/><path d="M1861.21,1237c-1.06,1.18-32.78,33.15-32,48.84s-.35,59.22-42.84,122.46c-37.18,55.33-43.55,67.79-44.1,79,0,1-28,27.48-51.4,34.86-15.21,4.81-31.12-8.17-26.85-8.38,10.84-.55,36.32-32.76,50-47.89s13.91-13.82,26.22-51.54,44.43-142.77,50.55-169.69,31.33-60,36.24-55.51S1861.21,1237,1861.21,1237Z" class="cls-27" transform="translate(0 -626.25)"/><path d="M1993.05,1132.21s-44.4,35.14-82.92,45.91-166.34,7-166.34,7,2.54,47,29,77.83,61.76,78.81,59.1,94.17c0,0,58.49-73.64,77.42-80.7s121.45-6.07,145.23-46.7c10.43-17.81,2.3-69.55,2.3-69.55Z" class="cls-45" transform="translate(0 -626.25)"/><path d="M1909.34,1276.37c16.7-4.62,69.49-3.24,112-19.54,37.58-15.08,42-32,39.41-68.53a261.09,261.09,0,0,0-3.86-28.18c1.56,17,2.9,39,.05,56.28-2.05,10.08-4.49,15.21-13.26,22.76C2011.05,1266.71,1929.43,1268.54,1909.34,1276.37Z" class="cls-46" transform="translate(0 -626.25)"/><path d="M1993.05,1132.21c-76.37,53.57-92.4,50.7-249.26,52.86,39.37,2.6,125.8,4.94,163.91-4.23C1936.76,1173.5,1970.08,1151.23,1993.05,1132.21Z" class="cls-47" transform="translate(0 -626.25)"/><path d="M1697.45,1529.46c-8.32,2.35-45.94,2-46.54-9.83a26.62,26.62,0,0,1,17.44-7.63c1,0,4.34,3.82,13.31,3.36,18-.91,43.57-26.47,61-31.41a6.26,6.26,0,0,1,1.83,4.36c.71,13.78-20.17,45-20.17,45l-5.4-.35s7.93-21.9,5.74-27.16S1705.77,1527.12,1697.45,1529.46Z" class="cls-48" transform="translate(0 -626.25)"/><path d="M2092.13,925.71s-25.77,2-37.29,12.91-39.09,48-41.87,64.65,11,35.79,7.06,58.12c-2.21,12.72-26.92,57.32-33.68,72.12s63.16,29.35,70.52,26.61,72.92-164,56.82-197.53S2092.13,925.71,2092.13,925.71Z" class="cls-49" transform="translate(0 -626.25)"/><path d="M2099.25,852.81s20.58-3.53,22.36,7.38-5.33,27.69-13.47,33c-6.29,4.13-28.08,17.54-34.12,4.57S2074.84,850.77,2099.25,852.81Z" class="cls-50" transform="translate(0 -626.25)"/><path d="M2110.94,857c4.27,10.79,4,22.25-6.91,30l2.35,3.31C2117.2,880.75,2117.12,868.58,2110.94,857Z" class="cls-51" transform="translate(0 -626.25)"/><path d="M2060.46,874.1s-1.24,18.41-1.06,33.41c.09,8.12-.51,16.2-2.51,22.29-2.11,6.39-19.23,28.82-20.77,34.17-1.17,4.1,32.61-18.31,37.41-20.48,7.64-3.45,15.21-9.83,22.06-13.38L2084.85,854Z" class="cls-27" transform="translate(0 -626.25)"/><path d="M2084.85,854l-24.39,20.09s-.72,10.68-1,22.4c7.79-3.11,22.54-15.1,26.82-32.24C2083.55,848.64,2084.85,854,2084.85,854Z" class="cls-22" transform="translate(0 -626.25)"/><path d="M2050.85,786.59a29.85,29.85,0,0,0-15.42,13c-5.59,9.88-2.63,24.17-5.88,33s3.27,53.21,23.25,54.35c25,1.41,35-35.13,37.65-42.31s1.45-35.61-9.07-45.82S2050.85,786.59,2050.85,786.59Z" class="cls-27" transform="translate(0 -626.25)"/><path d="M2045.69,836.74a148,148,0,0,1-3.51,18.68,11.93,11.93,0,0,0,6.86,1.47c-3.87,1.34-7.77-.89-8-.94A158,158,0,0,1,2045.69,836.74Z" class="cls-28" transform="translate(0 -626.25)"/><path d="M2059.4,827.22a23.8,23.8,0,0,1,10.7-1.26c5.36.82,10.89,8.48,10.89,8.48s-6.63-6.42-10.24-6.83a21.29,21.29,0,0,0-7.61.87Z" class="cls-28" transform="translate(0 -626.25)"/><path d="M2046.87,824s-2.95-4.3-7.17-6.07-11.55,2.39-11.55,2.39,7.58-2.56,10.36-1.25a17,17,0,0,1,5.11,4.3Z" class="cls-28" transform="translate(0 -626.25)"/><path d="M2058.42,863.92c-9.8,5.06-13.68,5.38-17.35,5.19C2046.76,872.12,2055.21,868.64,2058.42,863.92Z" class="cls-38" transform="translate(0 -626.25)"/><path d="M2060.67,836.08a3.24,3.24,0,0,0,3.48,2.92,3.2,3.2,0,0,0,2.59-3.71,3.25,3.25,0,0,0-3.49-2.92A3.19,3.19,0,0,0,2060.67,836.08Z" class="cls-28" transform="translate(0 -626.25)"/><path d="M2074.41,838.05c-11-11.5-15.69-3.42-19.46-2.94,3.05.26,6.65-2.83,10-1.9C2067.66,833.94,2071.7,836.47,2074.41,838.05Z" class="cls-52" transform="translate(0 -626.25)"/><path d="M2035.58,833.91c.3,1.82,1.6,3.1,2.9,2.85s2.12-1.92,1.82-3.74-1.6-3.09-2.91-2.84S2035.28,832.1,2035.58,833.91Z" class="cls-28" transform="translate(0 -626.25)"/><path d="M2045.21,835c-9.13-10.43-13.18-2.07-16.36-1.29,2.57,0,5.61-3.34,8.41-2.69C2039.55,831.54,2042.93,833.7,2045.21,835Z" class="cls-52" transform="translate(0 -626.25)"/><path d="M2061.3,852.5c.93,3,5.08,4.46,9.25,3.21s6.8-4.73,5.86-7.76-5.07-4.46-9.24-3.2S2060.38,849.48,2061.3,852.5Z" class="cls-22" transform="translate(0 -626.25)"/><path d="M2073.31,799.56c-13.17-14-23.38-12.09-24.27-12.43a3.74,3.74,0,0,1,.71-1.07c2.3-3.13,10.31-11.85,26.49-8.52,16.61,3,26,5.4,35.37,18.53,4.21,5.9,4.71,16.38,3.56,23.13-2.1,12.36-7.76,14-6.86,26.69.87,12.17-26.42,19.81-26.42,19.81.54-1.49,3.28-13.26,4.64-16.24,2.93-7.1,2.86-12.91.57-18.75-1.3.46-4.79-1.1-6.64-3C2074.41,821.72,2080.44,816.23,2073.31,799.56Z" class="cls-53" transform="translate(0 -626.25)"/><path d="M2058.48,780.35s-12-4.13-23.92,1.26-18.71,34.47-14.36,41.58-22.46,10.32-9,14C2030.16,842.31,2069.76,785.61,2058.48,780.35Z" class="cls-50" transform="translate(0 -626.25)"/><path d="M2053.9,783.73c-18.2-4-32.46,8-30.47,23.64.35,2.65,1.23,5.42,3.59,6.79l1.74-3.34c-1-.3-1.76-3-2-3.92C2023.87,793.08,2036.34,781.18,2053.9,783.73Z" class="cls-54" transform="translate(0 -626.25)"/><path d="M2092.67,927.76c1.71-5.18,59.2-51.52,78.17-71.8,7.53,10.14,16.1,18.56,25.93,24.52-23.26,37.3-77.62,102.94-83.31,103C2097.25,983.71,2087.53,943.3,2092.67,927.76Z" class="cls-55" transform="translate(0 -626.25)"/><path d="M2113.46,983.49c-17.16-1.08-26.17-48.53-19.23-55.26.62-.6-.72.67,6.76-6.25,15.71-14.56,50.89-43.69,69.85-66-22,20.18-78,63.88-80.37,71.77-3.79,13.55,2.12,40.65,13.29,51.52C2106.3,981.81,2109.83,983.78,2113.46,983.49Z" class="cls-42" transform="translate(0 -626.25)"/><path d="M2176,849.72c23.21-37.25,28.54-94.54,20.08-110.67-7.79-14.84-6.29-27.51-12-38.42-2.77-5.28-2.49-7.07-2.34-7.5s1.81-.61,4.5.36c4.76,1.71,5.12,17.83,9.56,19.42a2.24,2.24,0,0,0,2.87-1.62c2.12-5.9-3.46-48.11.17-48.65,2.71-.4,2.24,7.29,2.29,7.5,1.44,25.93,2.3,34.51,6.26,32.85a2.3,2.3,0,0,0,1.26-1.46c1.68-4.66-1.28-39.86,3.45-43.2,1.2-.84,2.05,8.72,2.09,8.92.33,4.22-2.71,32.17.66,34.54,6.32,4.45,4.84-35.92,10.7-33.81,3.37,1.21-.71,13-1.46,18.9-1.55,12.18-1.74,15.16-.11,16.41,3.14,2.38,6.58-5.23,9.25-10.18,2.09-3.87,5.86-10.88,7.7-12.13,1.92,4.32-6,18.37-8.2,22.56-4.28,8-3.83,5.83-10.27,32.84-2.39,10.07-2.37,7-1.14,13.87,6.4,35.44-2.87,78.5-15.05,112.4-1.59,4.41-4.94,10.59-9.46,17.83-9.83-6-18.4-14.38-25.93-24.52A45.81,45.81,0,0,0,2176,849.72Z" class="cls-27" transform="translate(0 -626.25)"/><path d="M2169.88,846.21s-6.72,6.08-6.91,10.35-10.14,9.8-6.1,11.63,30.75,26.74,30.75,26.74,16.18-2.49,15.67-11,5-1.88,1.23-11.86S2178.4,841,2169.88,846.21Z" class="cls-56" transform="translate(0 -626.25)"/><path d="M2203.57,880.44c-7.68-13.45-18.91-21.64-30.51-24.59a1.12,1.12,0,0,0-.56,2.17C2173.23,858.32,2190.6,860.45,2203.57,880.44Z" class="cls-42" transform="translate(0 -626.25)"/><path d="M2159.86,865.09c31.13,4.06,36.93,23.22,36.75,23a1.12,1.12,0,0,0,2.1-.79C2198.53,887.17,2192,867.71,2159.86,865.09Z" class="cls-42" transform="translate(0 -626.25)"/><path d="M2084.72,832.35s5.53-8.75,8-3.43.09,22-6.16,20.54S2084.72,832.35,2084.72,832.35Z" class="cls-27" transform="translate(0 -626.25)"/><path d="M2087.53,831.9c-1.52,2.51-3.54,10.36-1.23,11.63C2091.29,846.29,2092.22,824.19,2087.53,831.9Z" class="cls-22" transform="translate(0 -626.25)"/><path d="M2157.57,1155.69,2017.93,1163c-13.14.68-25.68,6.85-33.28,17.58a41.4,41.4,0,0,0-5.6,37.1l28.31,76.46,110,.27,52-125.26A11.42,11.42,0,0,0,2157.57,1155.69Zm-51.74,121.15h-80.35l-26.43-65.75a20.61,20.61,0,0,1,18.52-27l131-6.83Z" class="cls-21" transform="translate(0 -626.25)"/><path d="M2074.32,1357.94c-3.54,3.69-10,6-17.24,5.77s-13.5-3.06-16.76-7c3.53-3.69,10-6,17.23-5.78S2071.05,1354,2074.32,1357.94Z" class="cls-2" transform="translate(0 -626.25)"/><path d="M2153.67,1510.49a618.56,618.56,0,0,1-6.51-99.86c.13-16.68,1.05-33.34,2.38-50s3.29-33.16,5.6-49.64a919.07,919.07,0,0,1,19.68-97.86q6.24-24.17,13.77-48c5-15.86,10.43-31.58,16.65-47.06l2,.8c-6,15.43-11.18,31.22-16,47.07s-9.19,31.87-13.13,48a911.2,911.2,0,0,0-18.37,97.66c-2.1,16.43-3.91,32.9-5,49.42s-1.82,33.05-1.75,49.58a612.58,612.58,0,0,0,7.67,98.71Z" class="cls-2" transform="translate(0 -626.25)"/><path d="M2215,1051.87c-9.43,5.68-16.94,17.71-19,32.43s1.77,28.37,9.24,36.44c9.43-5.68,16.94-17.71,19-32.43S2222.42,1059.94,2215,1051.87Z" class="cls-2" transform="translate(0 -626.25)"/><path d="M2159.44,1102.59c-1.15,8.52,2.5,19,10.44,27.45s18.15,12.8,26.72,12.21c1.15-8.52-2.5-19-10.44-27.45S2168,1102,2159.44,1102.59Z" class="cls-2" transform="translate(0 -626.25)"/><path d="M2197.6,1144.06c7.22,4.66,18.24,5.81,29.29,2.24s19.31-11,22.42-19c-7.22-4.67-18.24-5.82-29.29-2.24S2200.71,1136.05,2197.6,1144.06Z" class="cls-2" transform="translate(0 -626.25)"/><path d="M2187.4,1178.33c7.22,4.67,18.24,5.82,29.29,2.24s19.3-11,22.41-19c-7.21-4.67-18.23-5.81-29.28-2.23S2190.51,1170.32,2187.4,1178.33Z" class="cls-2" transform="translate(0 -626.25)"/><path d="M2176.12,1215.75c7.22,4.67,18.24,5.81,29.28,2.24s19.31-11,22.42-19c-7.22-4.67-18.24-5.82-29.28-2.24S2179.23,1207.74,2176.12,1215.75Z" class="cls-2" transform="translate(0 -626.25)"/><path d="M2168.55,1250.59c7.22,4.68,18.24,5.82,29.29,2.24s19.31-11,22.41-19c-7.21-4.66-18.23-5.82-29.28-2.23S2171.66,1242.58,2168.55,1250.59Z" class="cls-2" transform="translate(0 -626.25)"/><path d="M2171.7,1243.54c-7.22,4.67-18.24,5.82-29.29,2.24s-19.3-11-22.41-19c7.21-4.67,18.24-5.82,29.28-2.24S2168.59,1235.53,2171.7,1243.54Z" class="cls-2" transform="translate(0 -626.25)"/><path d="M2149.31,1135.74c-1.16,8.52,2.5,19,10.44,27.45s18.15,12.81,26.72,12.21c1.15-8.52-2.51-19-10.44-27.45S2157.88,1135.14,2149.31,1135.74Z" class="cls-2" transform="translate(0 -626.25)"/><path d="M2137.71,1173.41c-1.15,8.51,2.5,19,10.44,27.45s18.14,12.8,26.72,12.2c1.15-8.51-2.51-19-10.45-27.45S2146.28,1172.81,2137.71,1173.41Z" class="cls-2" transform="translate(0 -626.25)"/><path d="M2366.4,1205.43c-14.45,8-28,17.37-41.14,27.28a461.85,461.85,0,0,0-37.63,32,466.78,466.78,0,0,0-64.38,74.87,461.44,461.44,0,0,0-47.17,86.92,480.2,480.2,0,0,0-27.31,95.24l7,1.17a474.68,474.68,0,0,1,25.48-94.34,457.13,457.13,0,0,1,45.35-86.72,463.46,463.46,0,0,1,62.78-75.32,460.55,460.55,0,0,1,37-32.4,346.11,346.11,0,0,1,40.54-27.79Z" class="cls-2" transform="translate(0 -626.25)"/><path d="M2419.71,1168.22c-.77,11-8.07,23.14-20.23,31.69s-26.07,11.32-36.66,8.34c.77-11,8.08-23.13,20.23-31.69S2409.12,1165.24,2419.71,1168.22Z" class="cls-2" transform="translate(0 -626.25)"/><path d="M2337.85,1158.92c8.11,7.42,13.11,20.7,12.25,35.54s-7.32,27.46-16.24,33.91c-8.12-7.43-13.11-20.71-12.26-35.55S2328.93,1165.37,2337.85,1158.92Z" class="cls-2" transform="translate(0 -626.25)"/><path d="M2289.52,1183.18c9.8,5,18.15,16.46,21.27,31s.25,28.43-6.63,37c-9.8-5-18.14-16.47-21.27-31S2282.64,1191.76,2289.52,1183.18Z" class="cls-2" transform="translate(0 -626.25)"/><path d="M2256.92,1213.17c9.8,5,18.15,16.47,21.27,31s.25,28.42-6.62,37c-9.81-5-18.15-16.47-21.28-31S2250,1221.76,2256.92,1213.17Z" class="cls-2" transform="translate(0 -626.25)"/><path d="M2219.39,1244c10.75,2.32,21.76,11.27,28.5,24.52s7.51,27.41,3.06,37.47c-10.76-2.32-21.76-11.27-28.5-24.52S2214.94,1254.06,2219.39,1244Z" class="cls-2" transform="translate(0 -626.25)"/><path d="M2193,1282.59c9.82-.42,21.34,4.84,30.16,14.78s12.66,22,11.08,31.69c-9.82.42-21.34-4.84-30.16-14.77S2191.38,1292.29,2193,1282.59Z" class="cls-2" transform="translate(0 -626.25)"/><path d="M2173.79,1306.86c9.81-.42,21.34,4.84,30.15,14.77s12.67,22,11.08,31.7c-9.81.41-21.34-4.84-30.15-14.78S2172.2,1316.55,2173.79,1306.86Z" class="cls-2" transform="translate(0 -626.25)"/><path d="M2162.83,1342.64c8.41-.35,18.29,4.15,25.85,12.67s10.85,18.86,9.5,27.17c-8.42.35-18.3-4.15-25.85-12.67S2161.48,1351,2162.83,1342.64Z" class="cls-2" transform="translate(0 -626.25)"/><path d="M2152.21,1380c6.12-3.47,15.22-3.87,24.15-.43s15.38,9.85,17.6,16.53c-6.12,3.46-15.22,3.87-24.15.43S2154.42,1386.64,2152.21,1380Z" class="cls-2" transform="translate(0 -626.25)"/><path d="M2147.91,1410.73c3.77-4.19,10.57-6.83,18.23-6.5s14.21,3.54,17.6,8c-3.77,4.19-10.57,6.83-18.23,6.5S2151.3,1415.23,2147.91,1410.73Z" class="cls-2" transform="translate(0 -626.25)"/><path d="M2399.5,1250c-9.35,5.79-23.48,7-37.54,2.12s-24.42-14.53-28.2-24.86c9.35-5.79,23.49-7,37.54-2.13S2395.73,1239.62,2399.5,1250Z" class="cls-2" transform="translate(0 -626.25)"/><path d="M2369.83,1274.37c-9.35,5.79-23.49,7-37.54,2.12s-24.42-14.53-28.2-24.86c9.35-5.8,23.49-7,37.54-2.12S2366.05,1264,2369.83,1274.37Z" class="cls-2" transform="translate(0 -626.25)"/><path d="M2338.2,1304.48c-9.36,5.79-23.49,7-37.54,2.12s-24.43-14.53-28.2-24.87c9.35-5.79,23.48-7,37.53-2.12S2334.42,1294.14,2338.2,1304.48Z" class="cls-2" transform="translate(0 -626.25)"/><path d="M2302.5,1324.51c-7.61,4.71-19.11,5.67-30.53,1.72S2252.1,1314.41,2249,1306c7.6-4.71,19.1-5.68,30.53-1.72S2299.43,1316.1,2302.5,1324.51Z" class="cls-2" transform="translate(0 -626.25)"/><path d="M2275.76,1343.64c-6.22,4-15.55,4.94-24.78,1.75s-16-9.69-18.41-16.7c6.22-4,15.56-4.94,24.79-1.75S2273.35,1336.63,2275.76,1343.64Z" class="cls-2" transform="translate(0 -626.25)"/><path d="M2259.79,1368.24c-6.22,4-15.56,4.94-24.79,1.74s-16-9.68-18.4-16.69c6.22-4,15.55-4.94,24.78-1.75S2257.39,1361.23,2259.79,1368.24Z" class="cls-2" transform="translate(0 -626.25)"/><path d="M2242.28,1390.5c-5,4.29-13.48,6.36-22.55,4.89s-16.42-6.1-19.84-11.77c5-4.29,13.48-6.36,22.55-4.89S2238.86,1384.83,2242.28,1390.5Z" class="cls-2" transform="translate(0 -626.25)"/><path d="M2225.37,1418.53c-5.68,1.62-13.23.16-19.91-4.4s-10.78-11.06-11.34-16.93c5.67-1.62,13.22-.16,19.9,4.4S2224.8,1412.66,2225.37,1418.53Z" class="cls-2" transform="translate(0 -626.25)"/><path d="M2206.52,1435.27c-4.49.4-10-1.76-14.33-6.14s-6.54-9.84-6.12-14.33c4.49-.41,10,1.75,14.33,6.13S2206.93,1430.77,2206.52,1435.27Z" class="cls-2" transform="translate(0 -626.25)"/><path d="M2194,1439.65a11.71,11.71,0,1,1-3.4-9.11A10.94,10.94,0,0,1,2194,1439.65Z" class="cls-2" transform="translate(0 -626.25)"/><path d="M2190,1447.93a11.72,11.72,0,1,1-3.4-9.11A10.89,10.89,0,0,1,2190,1447.93Z" class="cls-2" transform="translate(0 -626.25)"/><path d="M2045.08,1177.69a322.52,322.52,0,0,1,28,36.21,430.84,430.84,0,0,1,23.52,39.3,433.06,433.06,0,0,1,34.23,85,428,428,0,0,1,15.52,90.42,446.29,446.29,0,0,1-4.41,91.8l-6.49-1.06a439.78,439.78,0,0,0,5.74-90.47,422.62,422.62,0,0,0-14-89.69,443.12,443.12,0,0,0-14.08-43.28,452.17,452.17,0,0,0-18.6-41.59,427.79,427.79,0,0,0-22.81-39.48,321.88,321.88,0,0,0-27.31-36.49Z" class="cls-3" transform="translate(0 -626.25)"/><path d="M2009.34,1129.1c-2.59,9.87.19,22.73,8.32,33.87s19.52,17.72,29.72,18.26c2.59-9.87-.19-22.73-8.33-33.87S2019.53,1129.64,2009.34,1129.1Z" class="cls-3" transform="translate(0 -626.25)"/><path d="M2084,1145.34c-9.34,4.1-17.69,14.28-21.36,27.57s-1.75,26.3,4.16,34.62c9.35-4.1,17.69-14.28,21.36-27.56S2089.93,1153.66,2084,1145.34Z" class="cls-3" transform="translate(0 -626.25)"/><path d="M2119.24,1181.06c-10.1,1.46-20.85,9-27.93,20.88s-8.69,24.89-5.21,34.48c10.1-1.46,20.85-9.05,27.93-20.88S2122.72,1190.65,2119.24,1181.06Z" class="cls-3" transform="translate(0 -626.25)"/><path d="M2138.93,1217.12c-10.1,1.46-20.85,9.05-27.93,20.88s-8.69,24.89-5.21,34.49c10.1-1.47,20.85-9,27.93-20.88S2142.41,1226.72,2138.93,1217.12Z" class="cls-3" transform="translate(0 -626.25)"/><path d="M2162.71,1255.39c-10.14-1.17-22.48,3.41-32.35,13s-14.77,21.84-13.86,32c10.14,1.17,22.48-3.41,32.35-13S2163.62,1265.55,2162.71,1255.39Z" class="cls-3" transform="translate(0 -626.25)"/><path d="M2174.41,1297.17c-8.49-3.29-20.19-2.11-30.89,4s-17.68,15.55-19.19,24.54c8.5,3.29,20.19,2.11,30.9-4S2172.91,1306.16,2174.41,1297.17Z" class="cls-3" transform="translate(0 -626.25)"/><path d="M2184,1324.2c-8.5-3.3-20.19-2.11-30.89,4s-17.68,15.55-19.18,24.54c8.5,3.29,20.19,2.11,30.88-4S2182.52,1333.19,2184,1324.2Z" class="cls-3" transform="translate(0 -626.25)"/><path d="M2183,1358.9c-7.28-2.82-17.3-1.81-26.48,3.42s-15.16,13.32-16.44,21c7.28,2.82,17.3,1.8,26.48-3.42S2181.69,1366.6,2183,1358.9Z" class="cls-3" transform="translate(0 -626.25)"/><path d="M2181.18,1394.85c-4.35-4.87-12.22-7.94-21.08-7.58s-16.47,4.07-20.4,9.27c4.35,4.86,12.22,7.94,21.08,7.58S2177.24,1400.05,2181.18,1394.85Z" class="cls-3" transform="translate(0 -626.25)"/><path d="M2175.78,1423.15c-2.06-4.81-7.25-9.16-14.07-11.15s-13.55-1.11-17.86,1.83c2.05,4.81,7.24,9.15,14.07,11.14S2171.46,1426.09,2175.78,1423.15Z" class="cls-3" transform="translate(0 -626.25)"/><path d="M2002.73,1206.91c6.49,7.88,18.55,13.14,32.33,13.06s25.8-5.48,32.19-13.43c-6.49-7.87-18.55-13.13-32.34-13S2009.12,1199,2002.73,1206.91Z" class="cls-3" transform="translate(0 -626.25)"/><path d="M2021.51,1237.21c6.49,7.87,18.55,13.13,32.34,13s25.79-5.47,32.19-13.42c-6.49-7.88-18.56-13.14-32.35-13.06S2027.91,1229.26,2021.51,1237.21Z" class="cls-3" transform="translate(0 -626.25)"/><path d="M2040.32,1273.09c6.49,7.87,18.55,13.13,32.34,13.05s25.78-5.48,32.18-13.43c-6.49-7.87-18.55-13.13-32.34-13S2046.72,1265.14,2040.32,1273.09Z" class="cls-3" transform="translate(0 -626.25)"/><path d="M2065.71,1301.32c5.27,6.41,15.08,10.69,26.3,10.62s21-4.45,26.17-10.92c-5.27-6.4-15.08-10.68-26.3-10.62S2070.91,1294.86,2065.71,1301.32Z" class="cls-3" transform="translate(0 -626.25)"/><path d="M2083.48,1326.1c4.27,5.38,12.19,9,21.25,8.93s16.95-3.74,21.15-9.18c-4.27-5.38-12.19-9-21.25-8.92S2087.69,1320.66,2083.48,1326.1Z" class="cls-3" transform="translate(0 -626.25)"/><path d="M2090.18,1352.46c4.26,5.39,12.19,9,21.25,8.94s16.94-3.75,21.14-9.18c-4.26-5.38-12.19-9-21.25-8.93S2094.38,1347,2090.18,1352.46Z" class="cls-3" transform="translate(0 -626.25)"/><path d="M2098.92,1377.24c3.15,5.27,9.95,9.61,18.34,11s16.24-.46,20.94-4.41c-3.14-5.28-9.95-9.61-18.34-11S2103.62,1373.29,2098.92,1377.24Z" class="cls-3" transform="translate(0 -626.25)"/><path d="M2105.42,1406.91c4.5,3.11,11.57,4.08,18.79,2.07s12.77-6.5,15-11.49c-4.5-3.12-11.56-4.09-18.78-2.07S2107.67,1401.92,2105.42,1406.91Z" class="cls-3" transform="translate(0 -626.25)"/><path d="M2117,1427.23c3.83,1.7,9.28,1.43,14.42-1.11s8.67-6.7,9.65-10.78c-3.83-1.69-9.28-1.42-14.42,1.12S2118,1423.16,2117,1427.23Z" class="cls-3" transform="translate(0 -626.25)"/><path d="M2126.65,1434.81a10.88,10.88,0,1,0,5.71-7A10.16,10.16,0,0,0,2126.65,1434.81Z" class="cls-3" transform="translate(0 -626.25)"/><path d="M2127.72,1443.28a10.87,10.87,0,1,0,5.7-7A10.16,10.16,0,0,0,2127.72,1443.28Z" class="cls-3" transform="translate(0 -626.25)"/><path d="M2263.73,1144.11c-10.52,12.71-19.67,26.42-28.26,40.47a461.23,461.23,0,0,0-23.26,43.55,467.24,467.24,0,0,0-32.41,93.27,461.2,461.2,0,0,0-12,98.18,479.82,479.82,0,0,0,9.56,98.61l6.93-1.48a473.81,473.81,0,0,1-10.93-97.11,456.59,456.59,0,0,1,10.35-97.32,463.85,463.85,0,0,1,30.75-93.1,460.87,460.87,0,0,1,22.48-43.71,348.33,348.33,0,0,1,27.5-40.72Z" class="cls-4" transform="translate(0 -626.25)"/><path d="M2299.66,1089.92c3.31,10.5,1,24.49-7.19,36.91s-20.09,20.1-31,21.21c-3.31-10.49-1-24.48,7.19-36.9S2288.71,1091,2299.66,1089.92Z" class="cls-4" transform="translate(0 -626.25)"/><path d="M2220.09,1111.32c10.28,3.93,19.79,14.45,24.45,28.57s3.26,28.23-2.67,37.5c-10.27-3.93-19.79-14.44-24.45-28.56S2214.16,1120.59,2220.09,1111.32Z" class="cls-4" transform="translate(0 -626.25)"/><path d="M2184,1151.63c10.95,1,22.93,8.66,31.17,21s10.67,26.35,7.42,36.86c-11-1-22.93-8.65-31.17-21S2180.8,1162.14,2184,1151.63Z" class="cls-4" transform="translate(0 -626.25)"/><path d="M2164.73,1191.5c10.95,1,22.92,8.65,31.17,21s10.66,26.34,7.41,36.86c-10.95-1.05-22.92-8.66-31.17-21S2161.48,1202,2164.73,1191.5Z" class="cls-4" transform="translate(0 -626.25)"/><path d="M2141.13,1233.94c10.86-1.78,24.38,2.51,35.52,12.35s17,22.75,16.6,33.74c-10.86,1.79-24.38-2.5-35.51-12.35S2140.69,1244.94,2141.13,1233.94Z" class="cls-4" transform="translate(0 -626.25)"/><path d="M2130.72,1279.55c9-4,21.63-3.33,33.47,2.67s19.86,15.82,21.95,25.42c-9,4-21.63,3.32-33.48-2.67S2132.81,1289.15,2130.72,1279.55Z" class="cls-4" transform="translate(0 -626.25)"/><path d="M2121.79,1309.16c9-4,21.63-3.33,33.47,2.67s19.86,15.81,21.94,25.42c-9,4-21.62,3.33-33.47-2.68S2123.88,1318.76,2121.79,1309.16Z" class="cls-4" transform="translate(0 -626.25)"/><path d="M2124.74,1346.47c7.69-3.42,18.54-2.85,28.69,2.29s17,13.56,18.81,21.78c-7.7,3.43-18.54,2.86-28.69-2.29S2126.53,1354.7,2124.74,1346.47Z" class="cls-4" transform="translate(0 -626.25)"/><path d="M2128.55,1385.09c4.43-5.47,12.74-9.19,22.31-9.27s17.93,3.52,22.45,8.92c-4.43,5.46-12.75,9.18-22.31,9.26S2133.07,1390.48,2128.55,1385.09Z" class="cls-4" transform="translate(0 -626.25)"/><path d="M2135.85,1415.28c2-5.28,7.33-10.24,14.57-12.74s14.52-1.92,19.33,1c-2,5.28-7.33,10.23-14.57,12.73S2140.66,1418.22,2135.85,1415.28Z" class="cls-4" transform="translate(0 -626.25)"/><path d="M2310.86,1173.36c-6.58,8.82-19.29,15.12-34.14,15.76s-28.06-4.55-35.36-12.78c6.57-8.82,19.28-15.12,34.14-15.75S2303.55,1165.14,2310.86,1173.36Z" class="cls-4" transform="translate(0 -626.25)"/><path d="M2292.22,1207c-6.57,8.82-19.28,15.11-34.14,15.75s-28-4.54-35.36-12.77c6.58-8.82,19.29-15.11,34.14-15.75S2284.92,1198.74,2292.22,1207Z" class="cls-4" transform="translate(0 -626.25)"/><path d="M2273.85,1246.59c-6.57,8.82-19.29,15.12-34.14,15.75s-28.05-4.54-35.36-12.77c6.57-8.82,19.29-15.12,34.14-15.75S2266.54,1238.36,2273.85,1246.59Z" class="cls-4" transform="translate(0 -626.25)"/><path d="M2248,1278.33c-5.35,7.17-15.69,12.29-27.77,12.81s-22.82-3.7-28.77-10.39c5.35-7.17,15.69-12.29,27.77-12.81S2242.05,1271.63,2248,1278.33Z" class="cls-4" transform="translate(0 -626.25)"/><path d="M2230.15,1305.94c-4.31,6-12.66,10.31-22.42,10.72s-18.44-3.14-23.25-8.77c4.32-6,12.66-10.31,22.42-10.73S2225.34,1300.3,2230.15,1305.94Z" class="cls-4" transform="translate(0 -626.25)"/><path d="M2224.32,1334.68c-4.31,6-12.65,10.31-22.41,10.73s-18.44-3.14-23.25-8.77c4.31-6,12.65-10.31,22.41-10.73S2219.51,1329.05,2224.32,1334.68Z" class="cls-4" transform="translate(0 -626.25)"/><path d="M2216.21,1361.82c-3.11,5.84-10.21,10.86-19.18,12.83s-17.51.35-22.78-3.66c3.12-5.85,10.21-10.88,19.18-12.84S2210.94,1357.8,2216.21,1361.82Z" class="cls-4" transform="translate(0 -626.25)"/><path d="M2210.76,1394.1c-4.69,3.59-12.24,5-20.12,3.21s-14.09-6.32-16.78-11.58c4.69-3.59,12.25-5,20.14-3.21S2208.08,1388.84,2210.76,1394.1Z" class="cls-4" transform="translate(0 -626.25)"/><path d="M2199.38,1416.59c-4,2-9.91,2-15.59-.45s-9.68-6.75-10.95-11.09c4-2,9.91-2,15.58.45S2198.11,1412.26,2199.38,1416.59Z" class="cls-4" transform="translate(0 -626.25)"/><path d="M2189.36,1425.26a11.72,11.72,0,1,1-6.5-7.23A10.94,10.94,0,0,1,2189.36,1425.26Z" class="cls-4" transform="translate(0 -626.25)"/><path d="M2188.65,1434.44a11.72,11.72,0,1,1-6.5-7.23A10.91,10.91,0,0,1,2188.65,1434.44Z" class="cls-4" transform="translate(0 -626.25)"/><path d="M2110.91,1409.09c-15.54-22.76-31.9-45-49.36-66.34l.28-.24c17.91,21,34.74,42.92,50.76,65.41a792.33,792.33,0,0,1,44.64,69.84q4.91,8.79,9.53,17.73l-3.6,2q-4.44-9.06-9.21-18A785.75,785.75,0,0,0,2110.91,1409.09Z" class="cls-2" transform="translate(0 -626.25)"/><path d="M2044.48,1313.73c5.73.52,11.67,4.34,15.42,10.57s4.33,13.28,2.1,18.58c-5.73-.52-11.67-4.34-15.42-10.57S2042.26,1319,2044.48,1313.73Z" class="cls-2" transform="translate(0 -626.25)"/><path d="M2087,1327c2.34,4.55,2.46,11.39-.17,18.17s-7.3,11.77-12.09,13.56c-2.34-4.55-2.45-11.39.17-18.17S2082.21,1328.81,2087,1327Z" class="cls-2" transform="translate(0 -626.25)"/><path d="M2088.44,1377.09c-3.89,3.32-10.52,5-17.73,4s-13.12-4.41-16-8.65c3.89-3.32,10.51-5,17.72-4S2085.6,1372.84,2088.44,1377.09Z" class="cls-2" transform="translate(0 -626.25)"/><path d="M2105.63,1399.28c-3.89,3.32-10.52,5-17.72,4s-13.13-4.4-16-8.65c3.89-3.32,10.51-5,17.72-4S2102.78,1395,2105.63,1399.28Z" class="cls-2" transform="translate(0 -626.25)"/><path d="M2117.3,1417c-3.89,3.32-10.51,5-17.72,4s-13.13-4.41-16-8.66c3.89-3.32,10.52-5,17.73-4S2114.46,1412.71,2117.3,1417Z" class="cls-2" transform="translate(0 -626.25)"/><path d="M2130.25,1436.46c-3.89,3.32-10.52,5-17.73,4s-13.13-4.41-16-8.66c3.9-3.32,10.52-5,17.73-4S2127.4,1432.22,2130.25,1436.46Z" class="cls-2" transform="translate(0 -626.25)"/><path d="M2102,1346.05c2.34,4.55,2.46,11.39-.16,18.18s-7.31,11.76-12.1,13.56c-2.34-4.55-2.45-11.39.17-18.17S2097.18,1347.85,2102,1346.05Z" class="cls-2" transform="translate(0 -626.25)"/><path d="M2116.27,1365.65c2.33,4.55,2.45,11.39-.17,18.17s-7.31,11.76-12.1,13.56c-2.33-4.55-2.46-11.39.17-18.17S2111.48,1367.44,2116.27,1365.65Z" class="cls-2" transform="translate(0 -626.25)"/><path d="M2129.87,1385.4c2.34,4.55,2.46,11.39-.16,18.18s-7.31,11.76-12.1,13.55c-2.34-4.55-2.45-11.38.17-18.17S2125.08,1387.2,2129.87,1385.4Z" class="cls-2" transform="translate(0 -626.25)"/><path d="M2143.06,1404.75c2.34,4.55,2.46,11.39-.16,18.17s-7.31,11.77-12.1,13.57c-2.34-4.55-2.45-11.39.17-18.18S2138.27,1406.55,2143.06,1404.75Z" class="cls-2" transform="translate(0 -626.25)"/><path d="M2100.64,1461.22h103.12c17.12,8.75,28,21.77,28,36.31,0,15.54-12.38,29.33-31.55,38h-96c-19.17-8.71-31.55-22.5-31.55-38C2072.65,1483,2083.52,1470,2100.64,1461.22Z" class="cls-57" transform="translate(0 -626.25)"/><path d="M2110.34,1469.37c-10.16-1.19-23.78,6.48-27.3,21.88-4.79,30.41,25.66,39.34,42.27,31.62-14.48-3.63-30.31-10.27-30.78-25.25-.8-7.83,3.85-15.38,3.93-15.61a42.18,42.18,0,0,1,4.37-5.84A44.08,44.08,0,0,1,2110.34,1469.37Z" class="cls-6" transform="translate(0 -626.25)"/><rect width="113.91" height="7.15" x="2095.83" y="1456.76" class="cls-7" transform="translate(4305.57 2294.43) rotate(180)"/><path d="M2273.85,762.46a1.7,1.7,0,0,1-.54-.09,1.57,1.57,0,0,1-.93-2c36.69-100-23.43-130.84-24.05-131.14a1.57,1.57,0,0,1,1.39-2.81c.63.31,63.25,32.46,25.6,135A1.56,1.56,0,0,1,2273.85,762.46Z" class="cls-15" transform="translate(0 -626.25)"/><path d="M2242.28,764.29a1.57,1.57,0,0,1-1.1-2.68c26.29-26.3,14.87-87.78,14.75-88.4a1.57,1.57,0,1,1,3.08-.58c.5,2.58,11.84,63.74-15.62,91.2A1.57,1.57,0,0,1,2242.28,764.29Z" class="cls-15" transform="translate(0 -626.25)"/><path d="M595.87,1146.87l52,125.26,110-.27,28.32-76.46a41.39,41.39,0,0,0-5.6-37.1c-7.61-10.74-20.14-16.9-33.28-17.59l-139.64-7.28A11.42,11.42,0,0,0,595.87,1146.87Zm20.8,8.11,131,6.83a20.63,20.63,0,0,1,18.52,27l-26.43,65.75H659.43Z" class="cls-21" transform="translate(0 -626.25)"/><rect width="918.47" height="33.27" x="870.07" y="515.18" class="cls-58"/><rect width="918.47" height="10.77" x="870.07" y="513.33" class="cls-59"/><path d="M820.36,1073.84c-49.54-6.09-60.92,4-60.92-15.36,0-26.27,37.33-100.46,26.82-126.59-1.47-3.68-9.38-14.07-17.93-6.42-29.17,26.09-63.41,142.79-40.82,174.3,13.7,19.09,70.4,8.5,113,3.51.48-7.32,9-19.82,11.43-26.5C844.81,1075.86,830.64,1075.11,820.36,1073.84Z" class="cls-60" transform="translate(0 -626.25)"/></svg>